<svg xmlns="http://www.w3.org/2000/svg" width="342" height="67" fill="none" viewBox="10.82 3.86 267.9 60.01"><path d="M18.055 9.862h32.5v2.907h-32.5V9.862Z" fill="#F22929"/><path d="M52.361 15.113H17.803a3.305 3.305 0 0 1-1.337-.305 3.418 3.418 0 0 1-1.114-.825 3.572 3.572 0 0 1-.712-1.214 3.67 3.67 0 0 1-.196-1.407 3.83 3.83 0 0 1 .967-2.563 3.559 3.559 0 0 1 2.392-1.187H52.36c.479 0 .938-.198 1.277-.55.339-.351.529-.828.529-1.326 0-.497-.19-.974-.53-1.326a1.772 1.772 0 0 0-1.276-.549H17.803a7.103 7.103 0 0 0-4.944 2.288 7.656 7.656 0 0 0-2.026 5.213 8.048 8.048 0 0 0 0 .92c-.017.149-.017.3 0 .45v43.637a7.656 7.656 0 0 0 2.026 5.213 7.103 7.103 0 0 0 4.944 2.288H52.36c.479 0 .938-.198 1.277-.55.339-.351.529-.828.529-1.325V17.119a2.05 2.05 0 0 0-.52-1.374 1.903 1.903 0 0 0-1.286-.632Z" fill="#2D2D2D"/><path d="M87.224 33.997c2.336.288 4.064 1.04 5.184 2.256 1.152 1.184 1.728 2.656 1.728 4.416 0 1.76-.656 3.424-1.968 4.992-1.28 1.568-2.928 2.784-4.944 3.648-.896.352-2.08.608-3.552.768-1.44.16-2.928.24-4.464.24-2.56 0-5.184-.24-7.872-.72-.48-.096-.992-.336-1.536-.72-.512-.384-.768-.944-.768-1.68-.032-2.944-.144-7.04-.336-12.288l-.048-2.64c-.128-4.096-.192-7.312-.192-9.648 0-.416.24-.896.72-1.44.512-.576 1.12-.896 1.824-.96.416 0 .816-.016 1.2-.048 3.616-.352 6.032-.528 7.248-.528 2.4 0 4.512.24 6.336.72 1.856.448 3.392 1.28 4.608 2.496.448.512.816 1.168 1.104 1.968a6.4 6.4 0 0 1 .432 2.256 7.408 7.408 0 0 1-1.248 4.32c-.832 1.312-1.984 2.176-3.456 2.592Zm-7.488-10.272c-1.088 0-2.224.064-3.408.192-1.152.128-2.128.288-2.928.48l.288 9.072 1.728-.048c2.784-.288 4.832-.528 6.144-.72.832-.192 1.648-.56 2.448-1.104.8-.576 1.456-1.168 1.968-1.776.544-.64.816-1.12.816-1.44 0-.48-.096-.96-.288-1.44-.192-.512-.4-.88-.624-1.104-.864-.832-1.744-1.392-2.64-1.68-.896-.288-2.064-.432-3.504-.432Zm-5.904 22.368c1.632.224 3.184.336 4.656.336 3.232 0 5.776-.416 7.632-1.248 1.888-.864 2.832-2.496 2.832-4.896 0-.96-.72-1.76-2.16-2.4-1.44-.64-2.992-.96-4.656-.96-1.12 0-2.544.128-4.272.384-1.376.192-2.72.32-4.032.384.064 1.92.096 3.136.096 3.648 0 .992-.016 1.744-.048 2.256l-.048 2.496Zm96.462-23.856c0-1.376 1.008-2.064 3.024-2.064.864 0 2.512.032 4.944.096 2.688.128 4.72.192 6.096.192 1.12 0 2.48-.064 4.08-.192 1.088-.064 1.776-.096 2.064-.096 1.76.064 3.248.384 4.464.96.352.16.64.352.864.576.224.224.336.592.336 1.104 0 .704-.224 1.312-.672 1.824-.448.48-.992.72-1.632.72-.704 0-1.728-.096-3.072-.288-1.184-.224-2.224-.336-3.12-.336a29.9 29.9 0 0 0-1.968.048c-.096 1.056-.144 3.584-.144 7.584 0 4.768.144 9.6.432 14.496l.096 1.392c0 1.312-.752 1.968-2.256 1.968-1.184 0-1.984-.272-2.4-.816-.416-.576-.624-1.44-.624-2.592 0-2.272-.064-5.104-.192-8.496-.128-2.816-.192-4.816-.192-6 0-.8.096-3.248.288-7.344l-5.616.048c-1.792 0-3.04-.16-3.744-.48-.704-.352-1.056-1.12-1.056-2.304Z" fill="#F22929"/><path d="M117.583 34.813c.256.448.464 1.104.624 1.968.16.832.24 1.584.24 2.256 0 1.248-.272 3.024-.816 5.328-2.208 4.032-5.472 6.048-9.792 6.048-1.6 0-3.232-.528-4.896-1.584-1.664-1.056-2.816-2.272-3.456-3.648-.864-2.752-1.296-4.496-1.296-5.232 0-1.28.272-2.64.816-4.08.576-1.44 1.296-2.688 2.16-3.744.544-.736 1.52-1.36 2.928-1.872 1.408-.544 2.688-.816 3.84-.816 2.24 0 4.144.432 5.712 1.296 1.568.832 2.88 2.192 3.936 4.08Zm-4.176 7.728c.16-.416.24-1.488.24-3.216 0-.928-.176-1.84-.528-2.736a6.12 6.12 0 0 0-1.44-2.304c-.064-.064-.24-.16-.528-.288-.288-.16-.688-.304-1.2-.432-.48-.16-1.04-.24-1.68-.24-1.792 0-3.104.72-3.936 2.16-.832 1.44-1.248 3.072-1.248 4.896 0 .32.08.928.24 1.824.192.896.352 1.456.48 1.68.096.224.336.544.72.96a7.68 7.68 0 0 0 1.488 1.056 4.328 4.328 0 0 0 1.872.432c1.44 0 2.592-.336 3.456-1.008.864-.704 1.552-1.632 2.064-2.784Zm28.643-7.728c.256.448.464 1.104.624 1.968.16.832.24 1.584.24 2.256 0 .864-.096 1.824-.288 2.88-.192 1.056-.368 1.872-.528 2.448-2.208 4.032-5.472 6.048-9.792 6.048-1.6 0-3.232-.528-4.896-1.584-1.664-1.056-2.816-2.272-3.456-3.648-.864-2.72-1.296-4.464-1.296-5.232 0-1.28.272-2.64.816-4.08.576-1.44 1.296-2.688 2.16-3.744.576-.736 1.568-1.36 2.976-1.872 1.408-.544 2.688-.816 3.84-.816 2.24 0 4.128.432 5.664 1.296 1.568.832 2.88 2.192 3.936 4.08Zm-4.176 7.728c.16-.32.24-1.392.24-3.216 0-.928-.176-1.84-.528-2.736a6.12 6.12 0 0 0-1.44-2.304c-.064-.064-.24-.16-.528-.288-.288-.16-.688-.304-1.2-.432-.48-.16-1.04-.24-1.68-.24-1.792 0-3.104.72-3.936 2.16-.832 1.44-1.248 3.072-1.248 4.896 0 .288.096.88.288 1.776.192.896.336 1.472.432 1.728.256.448.768.976 1.536 1.584.8.576 1.664.864 2.592.864 1.44 0 2.576-.336 3.408-1.008.864-.704 1.552-1.632 2.064-2.784Zm13.335 7.872c-.64 0-1.184-.112-1.632-.336-.448-.224-.72-.464-.816-.72-.352-1.28-.528-2.96-.528-5.04 0-3.84.064-6.96.192-9.36.128-2.848.192-5.584.192-8.208 0-.768-.096-1.888-.288-3.36-.032-.256-.08-.72-.144-1.392a19.83 19.83 0 0 1-.096-1.872c0-.704.24-1.264.72-1.68.512-.416 1.168-.624 1.968-.624.64 0 1.152.208 1.536.624.416.384.624.912.624 1.584 0 1.024.032 2.464.096 4.32.064 1.728.096 3.024.096 3.888 0 .96-.032 2.24-.096 3.84a35.41 35.41 0 0 0-.096 2.112c0 1.408.016 2.576.048 3.504 1.184-1.184 2.736-2.576 4.656-4.176 1.92-1.6 3.408-2.72 4.464-3.36 1.12-.672 1.856-1.008 2.208-1.008.672 0 1.248.144 1.728.432.48.288.72.704.72 1.248s-.08.976-.24 1.296c-.16.32-.448.64-.864.96l-6.192 4.512c.704.352 1.296.8 1.776 1.344.512.544 1.024 1.216 1.536 2.016 1.088 1.792 1.952 3.104 2.592 3.936.672.832 1.28 1.248 1.824 1.248l1.2-.048c.224 0 .416.128.576.384.192.256.288.624.288 1.104 0 .736-.368 1.328-1.104 1.776-.704.448-1.504.672-2.4.672-1.248 0-2.352-.48-3.312-1.44-.96-.992-1.872-2.32-2.736-3.984-1.248-2.368-2.48-3.776-3.696-4.224l-3.072 2.496.192 5.232c0 .832-.224 1.424-.672 1.776-.416.352-.832.528-1.248.528Zm67.015-15.6c.256.448.464 1.104.624 1.968.16.832.24 1.584.24 2.256 0 1.248-.272 3.024-.816 5.328-2.208 4.032-5.472 6.048-9.792 6.048-1.6 0-3.232-.528-4.896-1.584-1.664-1.056-2.816-2.272-3.456-3.648-.864-2.752-1.296-4.496-1.296-5.232 0-1.28.272-2.64.816-4.08.576-1.44 1.296-2.688 2.16-3.744.544-.736 1.52-1.36 2.928-1.872 1.408-.544 2.688-.816 3.84-.816 2.24 0 4.144.432 5.712 1.296 1.568.832 2.88 2.192 3.936 4.08Zm-4.176 7.728c.16-.416.24-1.488.24-3.216 0-.928-.176-1.84-.528-2.736a6.12 6.12 0 0 0-1.44-2.304c-.064-.064-.24-.16-.528-.288-.288-.16-.688-.304-1.2-.432-.48-.16-1.04-.24-1.68-.24-1.792 0-3.104.72-3.936 2.16-.832 1.44-1.248 3.072-1.248 4.896 0 .32.08.928.24 1.824.192.896.352 1.456.48 1.68.096.224.336.544.72.96a7.68 7.68 0 0 0 1.488 1.056 4.328 4.328 0 0 0 1.872.432c1.44 0 2.592-.336 3.456-1.008.864-.704 1.552-1.632 2.064-2.784Zm31.906-3.744c.192-.704.4-1.664.624-2.88.32-1.44.576-2.528.768-3.264.192-.736.448-1.36.768-1.872.352-.576.656-.96.912-1.152.288-.192.592-.288.912-.288 1.664 0 2.496.64 2.496 1.92 0 .64-.256 1.84-.768 3.6-1.696 5.12-2.912 9.088-3.648 11.904-.32 1.184-.8 2.096-1.44 2.736-.64.608-1.504.912-2.592.912-.544 0-1.104-.256-1.68-.768a6.695 6.695 0 0 1-1.344-1.968l-.528-1.296a266.821 266.821 0 0 1-2.016-5.232c-.416-1.248-.688-2.368-.816-3.36l-.432 1.536a122.785 122.785 0 0 1-2.4 7.68c-.416 1.216-.928 2.096-1.536 2.64-.608.512-1.392.768-2.352.768-.576 0-1.088-.128-1.536-.384-.416-.256-.816-.688-1.2-1.296-.512-.832-1.008-1.952-1.488-3.36-.448-1.408-1.104-3.6-1.968-6.576a60.61 60.61 0 0 1-1.152-4.032c-.352-1.44-.528-2.448-.528-3.024 0-.672.176-1.2.528-1.584.352-.384.864-.576 1.536-.576.864 0 1.472.176 1.824.528.352.32.672.816.96 1.488.16 1.152.512 2.784 1.056 4.896l1.056 4.512c.064.352.256 1.088.576 2.208l.384 1.392a45.86 45.86 0 0 0 1.776-4.32c.48-1.376 1.008-3.072 1.584-5.088.032-.128.352-1.232.96-3.312.416-.672.784-1.168 1.104-1.488.32-.352.64-.528.96-.528.64 0 1.184.208 1.632.624.48.384.832.864 1.056 1.44.384 1.248.72 2.384 1.008 3.408.128.416.416 1.424.864 3.024.48 1.568.912 2.896 1.296 3.984s.704 1.856.96 2.304l1.824-5.856Zm10.112-5.472a3.69 3.69 0 0 1-.624-.576c-.16-.224-.24-.608-.24-1.152 0-.608.208-1.072.624-1.392.448-.352.96-.528 1.536-.528 1.12 0 2.08.288 2.88.864.832.576 1.44 1.376 1.824 2.4.704-1.312 1.6-2.208 2.688-2.688 1.088-.512 2.592-.768 4.512-.768.768 0 1.552.24 2.352.72a9.634 9.634 0 0 1 2.256 1.68c.544.704 1.008 1.584 1.392 2.64.384 1.024.576 1.952.576 2.784 0 .48-.032 1.264-.096 2.352a52.095 52.095 0 0 0-.096 2.736c0 2.24.432 3.616 1.296 4.128.128.064.368.144.72.24s.608.192.768.288c.192.096.288.24.288.432.032.768-.256 1.408-.864 1.92-.576.48-1.28.72-2.112.72-1.248 0-2.224-.336-2.928-1.008-.704-.672-1.2-1.696-1.488-3.072-.16-.512-.24-1.264-.24-2.256 0-.544.032-1.424.096-2.64.096-.96.144-1.984.144-3.072 0-1.12-.32-2.096-.96-2.928-.64-.864-1.52-1.296-2.64-1.296-.672 0-1.376.208-2.112.624-.736.384-1.248.864-1.536 1.44-.48.992-.8 2-.96 3.024-.384 1.984-.576 3.888-.576 5.712 0 .448.032 1.312.096 2.592v.72c0 .352-.048.688-.144 1.008-.064.32-.192.608-.384.864-.128.128-.368.256-.72.384s-.656.192-.912.192c-.448 0-1.008-.192-1.68-.576-.672-.384-1.072-.816-1.2-1.296l-.048-.672c0-.256.032-.64.096-1.152.384-2.24.576-4.192.576-5.856 0-.736-.016-1.296-.048-1.68l-.048-2.208c0-.672-.192-1.312-.576-1.92a6.89 6.89 0 0 0-1.488-1.728Z" fill="#2D2D2D"/></svg>